<?xml version="1.0" encoding="UTF-8"?><svg id="Logo" xmlns="http://www.w3.org/2000/svg" viewBox="0 0 1588.54 469.31"><defs><style>.cls-1{fill:#fff;}.cls-2{fill:#5fead5;}</style></defs><path class="cls-1" d="m934.87,414.56c-23.94,0-43.04-19.59-43.04-44s18.86-43.76,43.04-43.76,43.04,19.59,43.04,43.76-18.86,44-43.04,44m0,22.24c36.51,0,65.76-29.74,65.76-66.25s-29.25-66.01-65.76-66.01-65.76,29.74-65.76,66.01,29.26,66.25,65.76,66.25m-153.87-1.93h24.18v-64.8c0-30.22,23.94-45.45,50.77-37.96v-25.87c-25.87-4.11-43.28,6.77-50.77,23.69v-23.21h-24.18v128.15Zm-49.9-73.99h-82.69c2.9-19.1,19.34-34.82,41.59-34.82s37.96,15.72,41.1,34.82m-40.86,75.92c24.18,0,49.32-13.3,59.72-34.33l-21.52-5.56c-8.7,11.36-23.21,18.37-38.2,18.37-21.27,0-38.92-14.02-41.83-35.78h106.39c1.45-6.05.97-12.81-.24-19.1-4.84-31.43-31.67-55.85-64.31-55.85-36.27,0-65.76,29.25-65.76,66.25s28.53,66,65.76,66m-204.04-27.8v25.87h122.59v-22.97l-95.51-.24,97.68-124.52v-21.52h-124.76v23.21h93.81l-93.81,120.17Z"/><path class="cls-1" d="m1574.66,157.39h-103c2.42-26.35,23.94-47.39,51.98-47.39s48.84,21.04,51.02,47.39m-51.02,72.54c25.39,0,48.6-14.27,59.24-35.79l-13.06-2.17c-9.43,15.48-26.84,25.63-46.18,25.63-27.32,0-50.29-20.55-51.98-49.08h116.54c.48-3.39.48-7.5-.24-12.09-3.62-32.4-29.98-58.75-64.31-58.75-36.51,0-65.28,29.5-65.28,66.01s28.53,66.25,65.28,66.25m-75.53-2.18v-13.05c-29.26,7.98-43.52.48-43.52-25.15v-77.85h44v-11.85h-44v-40.37l-13.3,4.35v36.02h-29.01v11.85h29.01v78.1c0,33.85,19.34,46.9,56.82,37.96m-173.43-10.15c-29.25,0-52.71-23.45-52.71-53.92s22.97-53.67,52.71-53.67,52.95,24.18,52.95,53.67-23.45,53.92-52.95,53.92m-.72,12.33c23.45,0,43.28-13.06,53.19-31.92v29.98h13.3V99.84h-13.3v29.74c-9.91-18.61-29.5-31.91-53.19-31.91-36.27,0-64.8,29.5-64.8,66.01s28.53,66.25,64.8,66.25m-143.59-1.94h13.3v-63.83c0-37.96,23.94-57.54,55.61-50.77v-13.78c-27.56-4.6-47.63,7.49-55.61,29.25v-29.01h-13.3v128.15Zm-40.69-70.6h-103c2.42-26.35,23.94-47.39,51.99-47.39s48.84,21.04,51.01,47.39m-51.01,72.54c25.39,0,48.6-14.27,59.24-35.79l-13.06-2.17c-9.43,15.48-26.84,25.63-46.18,25.63-27.32,0-50.29-20.55-51.99-49.08h116.54c.48-3.39.48-7.5-.24-12.09-3.63-32.4-29.98-58.75-64.31-58.75-36.51,0-65.28,29.5-65.28,66.01s28.53,66.25,65.28,66.25m-207.86-1.94h13.3v-65.28c0-31.19,20.07-52.47,46.43-52.47,22.72,0,43.04,15.72,43.04,45.94v71.81h13.3v-76.4c0-34.33-26.11-53.92-54.64-53.92-23.94,0-40.62,14.03-48.12,29.5v-27.32h-13.3v128.15Zm-40.69-70.6h-103c2.42-26.35,23.94-47.39,51.98-47.39s48.84,21.04,51.02,47.39m-51.02,72.54c25.39,0,48.6-14.27,59.24-35.79l-13.06-2.17c-9.43,15.48-26.84,25.63-46.18,25.63-27.32,0-50.29-20.55-51.98-49.08h116.54c.48-3.39.48-7.5-.24-12.09-3.62-32.4-29.98-58.75-64.31-58.75-36.51,0-65.28,29.5-65.28,66.01s28.53,66.25,65.28,66.25m-168.28-.24c47.87,0,79.79-37.72,79.79-85.35v-3.87h-80.51l.24,12.09h66.73c-3.63,36.75-28.78,64.07-66.25,64.07-41.1,0-70.84-33.12-70.84-73.26s30.23-73.26,70.84-73.26c29.74,0,52.47,17.65,62.86,43.52l13.54-2.66c-12.33-31.92-40.62-54.16-76.4-54.16-47.63,0-84.62,38.69-84.62,86.56s36.51,86.32,84.62,86.32"/><path class="cls-2" d="m308.25,185.97l71.67-7.76c.3-.04.61-.09.91-.15,4.79-1.03,7.84-5.75,6.81-10.54-1.03-4.79-5.75-7.84-10.54-6.81l-70.47,15.14c-6.28,1.58-4.82,10.62,1.63,10.13m-12.54-37.75c-4.82,4.31.65,11.63,6.14,8.21l58.23-38.86c.26-.17.51-.36.76-.56,3.77-3.14,4.27-8.74,1.13-12.51-3.14-3.76-8.74-4.27-12.5-1.13l-53.76,44.84Zm-158.54,27.98l-124.42-22.23c-.31-.06-.64-.11-.96-.14-5.92-.56-11.18,3.78-11.74,9.71-.57,5.92,3.78,11.18,9.71,11.74l126.01,10.9c2.56.23,4.95-1.52,5.44-4.1.51-2.74-1.29-5.38-4.03-5.89m8.14-17.61l-88.97-40.61c-.35-.17-.72-.33-1.09-.47-5.6-2.03-11.78.86-13.81,6.46-2.03,5.59.86,11.78,6.45,13.81l93.22,30.63c6.42,2.07,10.13-6.66,4.2-9.83m-58.07-58.54c-2.95,5.17-1.16,11.76,4.01,14.72l58.51,33.24c6.82,3.65,12.9-5.46,6.9-10.37,0,0-14.72-11.02-28.51-21.61-12.73-9.78-24.96-19.18-24.96-19.18-5.11-3.98-12.77-2.45-15.94,3.2m85.52,23.31L107.72,45.38c-4.04-4.9-11.63-5.19-16.03-.58-4.14,4.28-4.02,11.11.26,15.24l73.03,70.54c1.93,1.85,5,2.01,7.1.26,2.25-1.88,2.56-5.23.67-7.49m20.04-10.45s-10.19-19.49-19.76-37.81c-8.49-16.25-16.5-31.57-16.5-31.57-2.92-5.68-10.36-7.55-15.62-3.92-4.92,3.35-6.2,10.05-2.85,14.98l44.04,64.71c4.58,6.33,14.09.64,10.68-6.39m21.18-4.61l-17.67-64.74c-1.56-5.86-8.1-9.07-13.68-6.7-5.18,2.15-7.63,8.09-5.48,13.27l25.75,61.98c2.99,6.67,12.8,3.32,11.08-3.8m19.26.25s-1.81-26.63-3.54-52.19c-1.6-23.6-3.15-46.3-3.15-46.3-.4-6.34-6.36-11.02-12.61-9.89-5.86,1.03-9.78,6.61-8.76,12.48l17.03,97.23c1.46,6.87,11.28,5.67,11.03-1.34m30.28-82.71c.85-5.88-3.69-11.32-9.64-11.52-5.6-.23-10.31,4.13-10.54,9.73l-3.5,87.44c-.11,2.97,2.05,5.63,5.06,6.05,3.21.44,6.17-1.8,6.61-5.01l12-86.68Zm19.63,54.68c1.84-4.63-.98-9.97-5.85-11.04-4.44-1.02-8.87,1.76-9.89,6.2l-9.48,41.36c-1.25,6.23,7.34,8.9,9.83,3.02l15.39-39.54Zm29.29,4.16c2.92-4.45,1.17-10.64-3.67-12.87-4.44-2.09-9.73-.19-11.82,4.25l-23.6,50.11c-2.55,5.84,5.33,10.24,8.96,4.99,0,0,8.14-12.57,15.97-24.63,7.22-11.14,14.16-21.84,14.16-21.84m56-18.74c4.46-4.5,4.01-12.06-.99-15.98-4.66-3.71-11.44-2.93-15.14,1.73l-67.1,84.4c-1.61,2.05-1.47,5.04.43,6.91,2.03,2,5.31,1.96,7.3-.07l75.5-76.98Zm32.45,59.22c-2.41-5.06-8.46-7.2-13.52-4.8l-85.63,40.76c-2.29,1.1-3.45,3.77-2.59,6.22.92,2.63,3.8,4.02,6.43,3.09l89.5-31.35c5.66-1.95,8.42-8.54,5.81-13.93"/><path class="cls-2" d="m307.67,287.47l93.43,116.6c4.38,5.52,12.75,6.05,17.78,1.12,4.77-4.63,4.89-12.25.26-17.03l-104-107.28c-4.58-4.39-11.24,1.57-7.46,6.58m-18.77,11.86l78.36,161.93c3.62,7.57,13.23,10.38,20.34,5.92,6.7-4.14,8.77-12.93,4.63-19.63l-94.61-153c-3.52-5.26-11.28-.9-8.72,4.79m-21.56,7.85l35.53,140.63c1.69,6.82,9.04,10.78,15.67,8.41,6.27-2.21,9.57-9.08,7.36-15.35l-48.12-136.83c-.93-2.62-3.73-4.18-6.48-3.48-2.93.74-4.69,3.71-3.96,6.63m-165.71,103.32c-3.95,5.83-1.97,13.96,4.24,17.29,5.84,3.18,13.15,1.02,16.34-4.82l68.36-125.53c1.32-2.43.6-5.53-1.74-7.1-2.49-1.67-5.86-1.01-7.53,1.48l-79.66,118.67Zm-23.35-50.43c-3.87,4.52-3.34,11.32,1.18,15.2,4.52,3.87,11.32,3.34,15.19-1.18l76.81-89.74c4.18-5.27-2.75-11.73-7.7-7.24-.9.99-84.62,81.85-85.49,82.96m-9.34-36.7c3.62,4.71,10.39,5.59,15.11,1.96l72.89-56.14c2.49-1.94,3.19-5.5,1.48-8.24-1.82-2.92-5.67-3.81-8.59-1.99l-78.06,48.69c-5.38,3.32-6.73,10.73-2.83,15.72m-23.98-37.48c2.39,5.06,8.44,7.22,13.5,4.82l86.4-40.91c6.62-3.44,2.53-13.14-4.54-10.8l-89.7,33.03c-5.56,2.02-8.22,8.52-5.66,13.86m90-69.09s-22.22,2.93-43.1,5.69c-18.52,2.44-36,4.75-36,4.75-6.33.8-10.64,7.11-9.04,13.3,1.44,5.77,7.29,9.29,13.07,7.84l77.4-19.35c7.53-2.14,5.46-13.01-2.33-12.23m-.81-22.96l-107.18-.29c-6.32-.33-11.65,5.02-11.27,11.35.32,5.95,5.4,10.5,11.34,10.18l107.15-10.62c6.7-.6,6.64-10.1-.04-10.62m10.23,18.61c1.38-.95,1.17-3.22-.38-3.88l-1.62-.75c-3.03-1.4-6.03,2.2-4.05,4.94,1.07,1.48,3.13,1.8,4.6.74l1.45-1.05Zm7.72,19.42c1.94-1.5.6-4.74-1.87-4.38l-4.12.56c-2.69.3-4.1,3.72-2.34,5.82,1.24,1.56,3.51,1.83,5.07.59l3.26-2.58Zm11.05,17.04c2.37-1.77.45-5.54-2.4-4.62-.71.3-8.06,2.54-8.44,3.03-4,3.15.34,9.07,4.55,6.2l6.29-4.62Zm14.58,12.6c2.06-2.32-.91-5.67-3.47-3.88l-9.46,6.85c-4.34,3.52,1.09,9.59,5.07,5.66l7.86-8.63Zm15.94,9.14c1.81-3.18-2.41-6.29-4.9-3.57l-9.98,11.31c-1.83,2.05-1.32,5.38,1.06,6.77,2.11,1.26,4.84.57,6.1-1.55l7.72-12.96Zm14.42,4.35c1-3.94-4.53-5.83-6.12-2.07l-6.71,17.12c-.9,2.24.38,4.82,2.7,5.47,2.19.62,4.47-.64,5.09-2.84l5.04-17.68Zm4,31.27c.91-3.05-.64-6.37-3.66-7.57-3.2-1.28-6.82.28-8.1,3.47l-37.6,94.07c-2.36,5.83.88,12.55,6.91,14.32,5.7,1.71,11.7-1.53,13.41-7.23l29.03-97.05Zm11.64-8.18l1.27-22.59c.14-4.03-5.6-4.75-6.45-.79l-4.24,22.23c-.55,2.8,1.56,5.5,4.41,5.64,2.62.15,4.87-1.85,5.02-4.48m9.4,11.9c.22-2.62-1.61-5.04-4.25-5.49-2.79-.46-5.42,1.41-5.89,4.2l-23.44,139.97c-1.06,6.16,3.46,12,9.7,12.51,5.93.51,11.15-3.88,11.66-9.81l12.22-141.39Zm10.38-11.15l-4.02-25.33c-.72-3.99-6.54-3.43-6.47.64l1.04,25.62c.1,2.82,2.71,4.97,5.5,4.51,2.59-.41,4.36-2.85,3.95-5.44m.78,11.48l4.65,110.15c.23,6.25,5.89,11.04,12.1,10.23,5.9-.74,10.09-6.12,9.35-12.02l-13.7-109.39c-1.28-7.85-12.47-6.9-12.41,1.04m19.65-15.44l-8.61-25.19c-1.49-4.06-7.48-2.42-6.69,1.84l5.54,26.05c.61,2.95,3.75,4.74,6.6,3.75,2.65-.91,4.07-3.79,3.16-6.44m19.89-6.12l-14.28-25.77c-2.21-3.75-7.82-1.04-6.24,3.02l11.4,27.17c1.14,2.77,4.52,3.94,7.13,2.47,2.45-1.36,3.34-4.44,1.98-6.89m16.62-11.17l-20.1-24.17c-2.88-3.28-7.89.47-5.55,4.16l17.54,26.09c1.65,2.48,5.17,2.99,7.45,1.07,2.15-1.79,2.45-4.99.66-7.14m14.79-15.2l-24.72-19.17c-3.94-2.89-8.53,2.36-5.13,5.88l22.36,21.88c2.4,2.38,6.44,2.11,8.5-.58,1.93-2.49,1.48-6.08-1.01-8.01m-14.1-34.59c-6.51-3.1-11.7,5.65-5.8,9.85l25.25,16.67c3.56,2.38,8.52,1.11,10.48-2.72,1.86-3.57.47-7.97-3.1-9.83l-26.84-13.97Zm4.99-16.33c-6.96-.97-9.26,8.72-2.58,10.97l39.24,11.89c.32.09.68.18,1.02.24,4.49.76,8.75-2.27,9.51-6.76.76-4.49-2.27-8.74-6.76-9.51l-40.42-6.83Zm67.82-11.42c-.19-4.9-4.33-8.72-9.23-8.52l-56.25,2.23c-6.78.46-7,10.1-.23,10.87l56.1,4.63c5.26.47,9.85-3.92,9.6-9.2m57.16,131.41l-100.27-68.69c-2.28-1.55-5.43-1.17-7.24.99-1.94,2.3-1.64,5.73.66,7.67l93.06,78.18c5.1,4.33,13,3.26,16.75-2.29,3.56-5.19,2.24-12.3-2.96-15.86"/></svg>